<svg width="180" height="26" viewBox="0 0 180 26" fill="none" xmlns="http://www.w3.org/2000/svg">
<g clip-path="url(#clip0_314_2787)">
<path d="M178.341 11.2336C178.012 11.2333 177.691 11.3234 177.418 11.4927C177.145 11.6619 176.932 11.9027 176.806 12.1846C176.68 12.4664 176.647 12.7766 176.71 13.076C176.774 13.3754 176.932 13.6505 177.164 13.8664C177.396 14.0823 177.692 14.2294 178.014 14.2891C178.336 14.3488 178.67 14.3184 178.973 14.2017C179.276 14.085 179.536 13.8873 179.718 13.6335C179.901 13.3798 179.998 13.0815 179.998 12.7763C179.998 12.3675 179.824 11.9754 179.513 11.6862C179.202 11.3969 178.78 11.2342 178.341 11.2336Z" fill="#DFFA70"/>
<path d="M36.2111 7.24835C35.1745 6.48755 33.8974 6.06499 32.5768 6.04588C30.7277 5.99446 28.8446 5.9905 27.0211 5.98853H25.2656V8.07505H29.5212C30.3192 8.07505 31.1682 8.07505 32.0299 8.12449C33.6407 8.21151 34.2939 9.05402 34.5578 9.74623C34.7327 10.157 34.799 10.6009 34.7508 11.0404C34.7027 11.4799 34.5416 11.9022 34.2812 12.2718C33.7577 12.97 32.8577 13.3774 31.8129 13.3892C31.0597 13.3991 30.2447 13.4031 29.2595 13.4031H27.4083H25.5614H25.2678V19.1939H28.3637V15.4599H31.7278L31.9172 15.719L32.7683 16.8681L34.4705 19.1919H37.6623L36.3451 17.3882L35.0685 15.6458L34.6876 15.1257L35.2685 14.8033L35.4812 14.6906C35.5898 14.6293 35.6749 14.5838 35.7579 14.5343C36.4002 14.1489 36.9358 13.6282 37.3212 13.0144C37.7067 12.4006 37.9311 11.7111 37.9762 11.0016C38.0214 10.2922 37.8861 9.58285 37.5813 8.9311C37.2764 8.27935 36.8107 7.70353 36.2217 7.25032L36.2111 7.24835Z" fill="#DFFA70"/>
<path d="M6.34087 5.93311L0 19.2868H3.27895L3.30024 19.2374C3.97262 17.5622 7.14731 10.6362 8.10482 8.75534C9.07723 10.6362 12.2838 17.5583 12.9584 19.2374L12.9796 19.2848H16.348L9.98368 5.93904L6.34087 5.93311Z" fill="#DFFA70"/>
<path d="M46.1377 6.04207V8.07518V8.84452H50.8636V19.1822H54.0276V8.84452H58.7109V8.06727V6.04207V6.03613H46.1377V6.04207Z" fill="#DFFA70"/>
<path d="M95.2346 1.97767C97.3406 1.98611 99.405 2.5236 101.209 3.53324C103.014 4.54288 104.491 5.98712 105.484 7.71311H107.844C106.783 5.42372 105.024 3.47319 102.784 2.10219C100.544 0.731197 97.9211 -0.000267723 95.2391 -0.00195022C92.5571 -0.00363271 89.9333 0.724544 87.6914 2.09273C85.4495 3.46091 83.6875 5.40924 82.623 7.6973H84.9849C85.9807 5.97425 87.4588 4.53322 89.2629 3.52645C91.067 2.51969 93.1303 1.98458 95.2346 1.97767Z" fill="#DFFA70"/>
<path d="M95.2346 23.5627C93.0549 23.5627 90.9192 22.9923 89.0719 21.9168C87.2246 20.8413 85.7405 19.3041 84.7892 17.4812H82.4678C83.4091 19.6554 84.9674 21.5515 86.9766 22.9675C89.3549 24.6372 92.2541 25.5406 95.2346 25.5406C98.2152 25.5406 101.114 24.6372 103.493 22.9675C105.502 21.5515 107.06 19.6554 108.002 17.4812H105.68C104.729 19.3041 103.245 20.8413 101.397 21.9168C99.5501 22.9923 97.4144 23.5627 95.2346 23.5627Z" fill="#DFFA70"/>
<path d="M95.2345 5.7947C93.3143 5.78977 91.4655 6.47092 90.0703 7.69729C89.7917 7.94184 89.5342 8.20635 89.3001 8.48839C88.9019 8.96444 88.5728 9.48708 88.3213 10.0429H89.681C90.2165 9.10708 91.0159 8.32432 91.9934 7.77847C92.971 7.23263 94.0899 6.94426 95.2303 6.94426C96.3707 6.94426 97.4896 7.23263 98.4671 7.77847C99.4447 8.32432 100.244 9.10708 100.78 10.0429H102.139C101.888 9.48708 101.559 8.96444 101.16 8.48839C100.926 8.20635 100.669 7.94184 100.39 7.69729C98.9972 6.4728 97.1518 5.7918 95.2345 5.7947Z" fill="#DFFA70"/>
<path d="M95.2343 19.7438C96.272 19.7396 97.2975 19.5365 98.2468 19.1472C99.1961 18.7579 100.049 18.1908 100.752 17.4813C100.999 17.2342 101.226 16.9697 101.431 16.6902C101.753 16.2555 102.021 15.7876 102.228 15.2959H100.888C100.624 15.8033 100.283 16.2728 99.8751 16.6902C99.2882 17.2927 98.5721 17.7743 97.7728 18.1039C96.9735 18.4334 96.1088 18.6037 95.2343 18.6037C94.3599 18.6037 93.4952 18.4334 92.6959 18.1039C91.8966 17.7743 91.1804 17.2927 90.5936 16.6902C90.186 16.2728 89.8449 15.8033 89.5808 15.2959H88.2402C88.4476 15.7876 88.7154 16.2555 89.0382 16.6902C89.2423 16.9697 89.4692 17.2342 89.7169 17.4813C90.4198 18.1908 91.2725 18.7579 92.2219 19.1472C93.1712 19.5365 94.1967 19.7396 95.2343 19.7438Z" fill="#DFFA70"/>
<path d="M78.2351 7.93271V6.04199H67.8535V7.93271V8.84445H78.2351V7.93271Z" fill="#DFFA70"/>
<path d="M158.139 12.5844L158.245 12.446L163.188 6.01831H159.96L158.292 8.13647L156.815 10.0114L156.3 10.666L155.785 10.0114L154.185 7.98023L152.787 6.20026H149.562L150.436 7.33746L154.358 12.444L154.426 12.533L140.055 12.3352V6.03413H137.039V12.2917L121.194 12.0722L115.925 6.08159H113.025V7.3968L117.14 12.0148L70.9348 11.374H67.8516V11.8507V19.1821H70.9539V14.1765L118.5 13.5397L123.532 19.1841H126.456C126.456 18.9112 126.456 18.6363 126.456 18.3238V18.0627L122.432 13.4863L137.033 13.2885V19.2079H140.048V13.2489L154.411 13.0512L154.347 13.1322L153.709 13.9471L149.577 19.194H153.053L153.417 18.7194L155.783 15.642L156.303 14.9676L156.822 15.642L159.696 19.3819H163.169L162.841 18.9705L158.258 13.15L158.154 13.0175L173.651 12.8079L158.139 12.5844Z" fill="#DFFA70"/>
<path d="M124.685 9.02838C125.245 9.54852 125.813 10.0786 126.409 10.6106V6.10132H123.155V7.61825C123.674 8.09291 124.187 8.56361 124.685 9.02838Z" fill="#DFFA70"/>
<path d="M113.033 19.188H116.236V18.3198L113.033 16.0059V19.188Z" fill="#DFFA70"/>
</g>
<defs>
<clipPath id="clip0_314_2787">
<rect width="180" height="25.5405" fill="white"/>
</clipPath>
</defs>
</svg>
