<svg width="20" height="20" viewBox="0 0 20 20" fill="none" xmlns="http://www.w3.org/2000/svg">
<g clip-path="url(#clip0_314_1325)">
<path d="M10.0008 0C8.02426 0 6.09207 0.586124 4.44861 1.68425C2.80514 2.78238 1.52422 4.34319 0.767814 6.16931C0.0114102 7.99543 -0.186499 10.0048 0.199112 11.9434C0.584723 13.882 1.53654 15.6628 2.93419 17.0604C4.33184 18.4581 6.11255 19.4099 8.05115 19.7955C9.98975 20.1811 11.9992 19.9832 13.8253 19.2268C15.6514 18.4704 17.2122 17.1895 18.3103 15.546C19.4085 13.9025 19.9946 11.9703 19.9946 9.99376C19.9946 7.34325 18.9417 4.8013 17.0675 2.9271C15.1933 1.05291 12.6513 0 10.0008 0ZM10.7557 18.4563V17.7835C10.7557 17.5833 10.6762 17.3913 10.5346 17.2497C10.3931 17.1082 10.201 17.0286 10.0008 17.0286C9.80063 17.0286 9.60862 17.1082 9.46705 17.2497C9.32549 17.3913 9.24595 17.5833 9.24595 17.7835V18.4563C7.26003 18.2761 5.40061 17.4036 3.99269 15.9914C2.58478 14.5793 1.71792 12.7173 1.54362 10.7308H2.195C2.39521 10.7308 2.58722 10.6513 2.72879 10.5097C2.87036 10.3681 2.94989 10.1761 2.94989 9.97591C2.94989 9.7757 2.87036 9.58369 2.72879 9.44212C2.58722 9.30056 2.39521 9.22102 2.195 9.22102H1.54719C1.73249 7.24425 2.6038 5.39467 4.00999 3.99304C5.41619 2.59141 7.26859 1.72612 9.24595 1.54725V2.17186C9.24595 2.37207 9.32549 2.56407 9.46705 2.70564C9.60862 2.84721 9.80063 2.92674 10.0008 2.92674C10.201 2.92674 10.3931 2.84721 10.5346 2.70564C10.6762 2.56407 10.7557 2.37207 10.7557 2.17186V1.54725C12.7331 1.72612 14.5855 2.59141 15.9917 3.99304C17.3979 5.39467 18.2692 7.24425 18.4545 9.22102H17.8067C17.6065 9.22102 17.4145 9.30056 17.2729 9.44212C17.1313 9.58369 17.0518 9.7757 17.0518 9.97591C17.0518 10.1761 17.1313 10.3681 17.2729 10.5097C17.4145 10.6513 17.6065 10.7308 17.8067 10.7308H18.4581C18.2838 12.7173 17.4169 14.5793 16.009 15.9914C14.6011 17.4036 12.7417 18.2761 10.7557 18.4563Z" fill="#DFFA70"/>
<path d="M14.4963 5.12915L10.0259 9.81372H10.0009C9.94578 9.81367 9.89078 9.81905 9.83672 9.82979L6.08906 7.00298C6.02965 6.95822 5.962 6.92559 5.88999 6.90698C5.81797 6.88836 5.74299 6.8841 5.66933 6.89446C5.59567 6.90482 5.52477 6.92958 5.46068 6.96734C5.39659 7.0051 5.34056 7.05511 5.2958 7.11452C5.2054 7.2345 5.16637 7.38548 5.18728 7.53424C5.2082 7.68301 5.28736 7.81737 5.40734 7.90777L9.155 10.7328C9.17485 10.9498 9.27734 11.1509 9.44128 11.2944C9.60521 11.438 9.81805 11.5131 10.0358 11.5041C10.2535 11.4952 10.4595 11.4029 10.6111 11.2464C10.7627 11.0899 10.8484 10.8811 10.8504 10.6632C10.8504 10.64 10.8504 10.6186 10.8504 10.5972L15.3119 5.91081C15.3655 5.85751 15.4079 5.794 15.4365 5.72404C15.4652 5.65408 15.4796 5.57908 15.4787 5.50348C15.4779 5.42788 15.462 5.35321 15.4318 5.28388C15.4017 5.21456 15.3579 5.15198 15.3031 5.09984C15.2484 5.04771 15.1837 5.00708 15.113 4.98036C15.0423 4.95364 14.9669 4.94137 14.8914 4.94426C14.8158 4.94716 14.7416 4.96517 14.6732 4.99724C14.6047 5.0293 14.5433 5.07476 14.4927 5.13093L14.4963 5.12915Z" fill="#DFFA70"/>
</g>
<defs>
<clipPath id="clip0_314_1325">
<rect width="20" height="20" fill="white"/>
</clipPath>
</defs>
</svg>
