<svg width="49" height="49" viewBox="0 0 49 49" fill="none" xmlns="http://www.w3.org/2000/svg">
<g clip-path="url(#clip0_314_1740)">
<path d="M24.5 49C27.8065 49 31.0174 48.354 34.0368 47.0764C36.9558 45.8418 39.5732 44.0713 41.8223 41.8223C44.0713 39.5732 45.8418 36.9558 47.0764 34.0368C48.354 31.0174 49 27.8065 49 24.5C49 23.5478 48.2296 22.7773 47.2773 22.7773C46.3251 22.7773 45.5547 23.5478 45.5547 24.5C45.5547 27.3424 44.9996 30.0986 43.899 32.697C42.8367 35.2044 41.3198 37.4582 39.3866 39.3914C37.4534 41.3246 35.1996 42.8463 32.6922 43.9038C30.0986 44.9996 27.3424 45.5547 24.5 45.5547C21.6576 45.5547 18.9014 44.9996 16.303 43.899C13.7956 42.8367 11.5418 41.3198 9.6086 39.3866C7.6754 37.4534 6.15372 35.1996 5.0962 32.6922C4.0004 30.0986 3.44532 27.3424 3.44532 24.5C3.44532 21.6576 4.0004 18.9014 5.10098 16.303C6.15969 13.8016 7.69193 11.5285 9.61339 9.60859C11.5311 7.68456 13.8048 6.15197 16.3078 5.09619C18.9014 4.00039 21.6576 3.44531 24.5 3.44531C25.4522 3.44531 26.2227 2.6749 26.2227 1.72266C26.2227 0.77041 25.4522 0 24.5 0C21.1935 0 17.9826 0.645996 14.9632 1.92363C12.0442 3.1582 9.42677 4.92871 7.17774 7.17773C4.92872 9.42676 3.16299 12.049 1.92842 14.9632C0.650787 17.9826 0.00479126 21.1935 0.00479126 24.5C0.00479126 27.8065 0.650787 31.0174 1.92842 34.0368C3.15821 36.9558 4.92872 39.5732 7.17774 41.8223C9.42677 44.0713 12.049 45.837 14.9632 47.0716C17.9826 48.354 21.1935 49 24.5 49Z" fill="#DFFA70"/>
</g>
<defs>
<clipPath id="clip0_314_1740">
<rect width="49" height="49" fill="white" transform="matrix(-1 0 0 1 49 0)"/>
</clipPath>
</defs>
</svg>
