<svg width="76" height="76" viewBox="0 0 76 76" fill="none" xmlns="http://www.w3.org/2000/svg">
<path d="M4.4794 4.4794C7.01423 1.94456 10.4481 0.514223 14.0329 0.5H61.5921C65.1769 0.514223 68.6108 1.94456 71.1456 4.4794C73.6807 7.01446 75.111 10.4487 75.125 14.0338V61.5912C75.111 65.1763 73.6807 68.6105 71.1456 71.1456C68.6105 73.6807 65.1763 75.111 61.5912 75.125H14.0338C10.4487 75.111 7.01446 73.6807 4.4794 71.1456C1.94456 68.6108 0.514223 65.1769 0.5 61.5921V14.0329C0.514223 10.4481 1.94456 7.01423 4.4794 4.4794ZM61.5931 6.375H14.0319C9.76823 6.375 6.375 9.76823 6.375 14.0319V61.5916C6.36887 62.5987 6.56266 63.5971 6.94516 64.5288C7.32786 65.4611 7.89185 66.308 8.60442 67.0206C9.31698 67.7331 10.1639 68.2971 11.0962 68.6798C12.028 69.0624 13.0265 69.2562 14.0338 69.25C14.0342 69.25 14.0346 69.25 14.035 69.25L61.5931 69.25C65.8568 69.25 69.25 65.8568 69.25 61.5931V14.0319C69.25 9.76823 65.8568 6.375 61.5931 6.375Z" fill="#DFFA70" stroke="black"/>
<path d="M52.1254 21.4752L52.1254 21.4752L52.132 21.4723C53.3487 20.9421 53.9208 21.1036 54.1726 21.3796C54.3188 21.5399 54.4411 21.8128 54.4849 22.25C54.5285 22.685 54.4899 23.2444 54.352 23.9266L54.3513 23.9302L48.8046 52.444L48.8045 52.444L48.8035 52.4496C48.596 53.5859 48.2548 54.1677 47.8909 54.3834C47.5791 54.5681 47.0524 54.5845 46.1333 53.9996L37.6989 47.1428L37.3441 46.8544L37.0252 47.182L32.0961 52.2455C31.8865 52.4389 31.6572 52.501 31.4701 52.4647C31.3064 52.4329 31.0783 52.3064 30.8781 51.9242L31.4144 44.8217L49.1238 27.4137C49.1244 27.4131 49.1251 27.4125 49.1257 27.4119C49.3915 27.1555 49.6211 26.8532 49.6532 26.5224C49.6717 26.332 49.6229 26.1324 49.4832 25.971C49.3529 25.8204 49.1833 25.7486 49.0389 25.7161C48.7586 25.6528 48.4369 25.704 48.1408 25.8048C47.8362 25.9087 47.5077 26.0823 47.1885 26.3263L26.6285 40.1211L18.298 37.2469C18.0045 37.1018 17.8475 36.9481 17.7692 36.8215C17.6933 36.6991 17.6748 36.5776 17.7 36.4494C17.7552 36.1685 18.0471 35.7842 18.6384 35.4946L52.1254 21.4752Z" fill="#DFFA70" stroke="black"/>
</svg>
