<svg width="76" height="76" viewBox="0 0 76 76" fill="none" xmlns="http://www.w3.org/2000/svg">
<path d="M22.1416 64.7166L22.1395 64.7153L21.1799 64.1422L9.54134 67.1804L8.70331 67.3992L8.93295 66.564L12.0369 55.2757L11.4138 54.2776C11.4136 54.2773 11.4134 54.2769 11.4131 54.2766C8.2285 49.2355 6.54407 43.399 6.55533 37.4435C6.55533 37.4433 6.55533 37.4432 6.55533 37.443L7.05533 37.444L22.1416 64.7166ZM22.1416 64.7166C27.0412 67.6103 32.6333 69.1364 38.3299 69.1345L22.1416 64.7166ZM55.2709 45.7613L55.27 45.7608C54.8051 45.5283 53.4187 44.8465 52.0399 44.1826C50.6497 43.5132 49.3087 42.8825 48.8991 42.7303C48.4524 42.5716 48.1866 42.5015 47.9764 42.525C47.8228 42.5422 47.6277 42.6193 47.3743 43.0035L47.3708 43.0089L47.3707 43.0089C46.7194 43.9692 44.8988 46.1092 44.3563 46.7206C44.0352 47.0926 43.6555 47.3579 43.1673 47.4155C42.7002 47.4706 42.2201 47.3239 41.7174 47.0762L41.7128 47.0739C41.5685 47.001 41.364 46.9125 41.1069 46.8013C39.7925 46.2328 37.1029 45.0694 34.0472 42.3455C34.0471 42.3454 34.047 42.3453 34.0469 42.3452L34.3797 41.972C31.5784 39.4906 29.7029 36.4183 29.1427 35.4872L55.2709 45.7613ZM55.2709 45.7613C55.4769 45.8638 55.658 45.9505 55.8204 46.0282C56.0529 46.1394 56.2471 46.2323 56.4217 46.3275C56.7161 46.4881 56.8242 46.5908 56.8665 46.663L56.8665 46.6631L56.8701 46.6691C56.869 46.6672 56.8694 46.6686 56.871 46.6739C56.8781 46.6968 56.9077 46.7932 56.9246 47.0037C56.9431 47.235 56.9422 47.5459 56.9101 47.9209C56.8461 48.6695 56.6605 49.6431 56.286 50.6984M55.2709 45.7613L57.2979 46.4102M56.7566 50.8674C57.5353 48.6743 57.5353 46.8025 57.2979 46.4102M56.7566 50.8674L56.2865 50.6971C56.2864 50.6975 56.2862 50.698 56.286 50.6984M56.7566 50.8674C55.9637 53.0558 52.2081 55.0504 50.4039 55.3245L56.7566 50.8674ZM57.2979 46.4102C57.1115 46.0922 56.6692 45.8803 56.0172 45.568M57.2979 46.4102L56.0172 45.568M56.286 50.6984C55.9475 51.6309 54.9308 52.6007 53.6905 53.3923C52.4629 54.1759 51.1407 54.7062 50.3309 54.8299M56.286 50.6984L50.3309 54.8299M50.3309 54.8299C48.745 55.0559 46.7934 55.1561 44.6397 54.47L44.639 54.4698C43.2727 54.0367 41.5349 53.4709 39.3267 52.5121L39.3253 52.5114C30.6028 48.757 24.7165 40.3196 23.6206 38.7488C23.5486 38.6456 23.4973 38.572 23.4672 38.5314L23.4643 38.5275L23.4568 38.5176C23.2126 38.1942 22.2824 36.963 21.4096 35.2549C20.524 33.5219 19.7195 31.3401 19.7195 29.1441C19.7195 25.0066 21.7344 22.8691 22.6932 21.8519C22.7562 21.785 22.8147 21.723 22.8677 21.6656L22.8678 21.6657L22.8748 21.6577C23.1444 21.353 23.4745 21.1068 23.8444 20.9349C24.2125 20.7638 24.6122 20.6698 25.0184 20.659C25.6519 20.659 26.2645 20.6593 26.7857 20.6911L26.7857 20.6912L26.7958 20.6916C26.8779 20.695 26.9615 20.6937 27.0312 20.6927L27.0493 20.6924C27.1277 20.6913 27.1941 20.6908 27.2594 20.694C27.3851 20.7001 27.4903 20.7197 27.5929 20.7678C27.7909 20.8605 28.1086 21.1227 28.4669 21.99L28.4669 21.99L28.469 21.995C28.8028 22.7789 29.3296 24.0541 29.8459 25.304C29.9408 25.5336 30.0353 25.7623 30.1281 25.987C30.717 27.4116 31.2557 28.7097 31.3878 28.9713C31.5854 29.3692 31.6686 29.7321 31.457 30.1671C31.4103 30.2615 31.3678 30.3491 31.3278 30.4313C31.0943 30.9118 30.95 31.2088 30.5907 31.6164L30.5891 31.6183C30.3925 31.8437 30.2011 32.0754 30.017 32.2982C29.7257 32.6508 29.4528 32.9811 29.2067 33.2291C29.2064 33.2294 29.2061 33.2297 29.2057 33.2301L50.3309 54.8299ZM38.3486 5.82436C42.5245 5.81697 46.6607 6.63249 50.5187 8.22396C54.3766 9.81538 57.88 12.1513 60.8271 15.0971C63.7843 18.0316 66.1287 21.52 67.7251 25.3612C69.3217 29.2027 70.1384 33.3209 70.1283 37.4783C70.1086 54.9556 55.8436 69.1344 38.3301 69.1345L38.3486 5.82436ZM38.3486 5.82436C38.3487 5.82436 38.3488 5.82436 38.3489 5.82436V6.32436L38.348 5.82436C38.3482 5.82436 38.3484 5.82436 38.3486 5.82436ZM56.0172 45.568C55.8554 45.4905 55.6806 45.4067 55.4937 45.3137L56.0172 45.568ZM20.209 69.9326L1.08589 74.9228L6.17965 56.3358L6.23475 56.1347L6.13068 55.9541C2.89332 50.334 1.1789 43.9872 1.17887 37.4631C1.19774 17.0955 17.8699 0.500233 38.3299 0.500236L38.3317 0.50023C43.2138 0.483005 48.0505 1.43324 52.5599 3.29549C56.8134 5.05207 60.6954 7.58692 64.0059 10.7661L64.595 11.3495C68.0555 14.7763 70.8005 18.8507 72.672 23.338C74.5436 27.8254 75.5047 32.6369 75.5 37.4955C75.4812 57.8823 58.8136 74.4775 38.3489 74.4775H38.33C38.33 74.4775 38.33 74.4775 38.3299 74.4775C32.1264 74.4759 26.0221 72.9286 20.5735 69.9768L20.4 69.8828L20.209 69.9326Z" fill="#DFFA70" stroke="black"/>
</svg>
